<svg width="22" height="22" viewBox="0 0 22 22" fill="none" xmlns="http://www.w3.org/2000/svg">
<path d="M11 22C17.0751 22 22 17.0751 22 11C22 4.92487 17.0751 0 11 0C4.92487 0 0 4.92487 0 11C0 17.0751 4.92487 22 11 22Z" fill="#F4B731"/>
<path d="M15.6874 6.59023L15.2749 7.00273C16.2591 8.07912 16.805 9.4849 16.805 10.9435C16.805 12.4021 16.2591 13.8078 15.2749 14.8842L15.6874 15.2967C16.782 14.1094 17.3897 12.5536 17.3897 10.9387C17.3897 9.32373 16.782 7.76794 15.6874 6.5806V6.59023ZM7.01248 6.62598C8.08887 5.64169 9.49465 5.09584 10.9532 5.09584C12.4118 5.09584 13.8176 5.64169 14.894 6.62598L15.3065 6.21348C14.1191 5.11884 12.5633 4.51111 10.9484 4.51111C9.33348 4.51111 7.77769 5.11884 6.59035 6.21348L7.01248 6.62598ZM6.6261 14.8884C5.64297 13.8122 5.09785 12.4073 5.09785 10.9497C5.09785 9.49205 5.64297 8.08713 6.6261 7.01098L6.2136 6.59848C5.11896 7.78582 4.51123 9.34161 4.51123 10.9565C4.51123 12.5715 5.11896 14.1273 6.2136 15.3146L6.6261 14.8884ZM14.8885 15.2692C13.8121 16.2535 12.4063 16.7994 10.9477 16.7994C9.48915 16.7994 8.08337 16.2535 7.00698 15.2692L6.59448 15.6817C7.78181 16.7764 9.33761 17.3841 10.9525 17.3841C12.5675 17.3841 14.1233 16.7764 15.3106 15.6817L14.8885 15.2692ZM13.5534 9.5726C13.4709 8.71185 12.7284 8.4231 11.7892 8.3351V7.14985H11.0632V8.3131H10.483V7.14985H9.76248V8.34335H8.28985V9.12023C8.28985 9.12023 8.8261 9.1106 8.81785 9.12023C8.91454 9.10959 9.01158 9.1369 9.08853 9.19641C9.16548 9.25592 9.21632 9.34297 9.23035 9.43923V12.7062C9.22828 12.7402 9.21943 12.7734 9.20432 12.8038C9.1892 12.8343 9.16813 12.8614 9.14235 12.8836C9.11705 12.9062 9.08745 12.9235 9.05531 12.9343C9.02318 12.9452 8.98917 12.9495 8.95535 12.9469C8.96498 12.9551 8.42735 12.9469 8.42735 12.9469L8.28985 13.8145H9.74873V15.0272H10.4747V13.8324H11.055V15.0217H11.7824V13.8227C13.0089 13.7485 13.8641 13.446 13.9714 12.2979C14.058 11.3739 13.6235 10.9614 12.9291 10.795C13.3512 10.5874 13.6125 10.2024 13.5534 9.5726ZM12.5359 12.1549C12.5359 13.0569 10.9904 12.9537 10.4981 12.9537V11.3532C10.9904 11.3546 12.5359 11.213 12.5359 12.1549ZM12.199 9.89985C12.199 10.7249 10.9092 10.6245 10.4995 10.6245V9.16973C10.9092 9.16973 12.199 9.04048 12.199 9.89985Z" fill="white"/>
<path d="M10.9478 18.4607C6.79937 18.4601 3.4375 15.0968 3.4375 10.9484C3.4375 6.80075 6.80075 3.4375 10.9484 3.4375C15.0968 3.4375 18.4601 6.79937 18.4607 10.9478C18.4609 11.9344 18.2667 12.9115 17.8892 13.8231C17.5117 14.7347 16.9583 15.563 16.2606 16.2606C15.563 16.9583 14.7347 17.5117 13.8231 17.8892C12.9115 18.2667 11.9344 18.4609 10.9478 18.4607ZM10.9478 4.02325C7.12594 4.026 4.03012 7.12594 4.0315 10.9478C4.03287 14.7696 7.13213 17.8668 10.9532 17.8668C14.7751 17.8668 17.8736 14.7696 17.875 10.9478C17.8754 10.0381 17.6964 9.13726 17.3484 8.29679C17.0003 7.45633 16.4901 6.69272 15.8467 6.04961C15.2033 5.4065 14.4395 4.89652 13.5989 4.54882C12.7583 4.20112 11.8574 4.02253 10.9478 4.02325Z" fill="white"/>
</svg>
