<svg width="22" height="22" viewBox="0 0 22 22" fill="none" xmlns="http://www.w3.org/2000/svg">
<path d="M11 22C17.0751 22 22 17.0751 22 11C22 4.92487 17.0751 0 11 0C4.92487 0 0 4.92487 0 11C0 17.0751 4.92487 22 11 22Z" fill="#F4B731"/>
<path fill-rule="evenodd" clip-rule="evenodd" d="M6.37794 5.5H10.8824C13.6221 5.5 15.6991 6.95475 16.4718 9.07088H17.875V10.3503H16.7674C16.7887 10.5524 16.7998 10.7587 16.7998 10.9677V10.9993C16.7998 11.2344 16.786 11.4668 16.7585 11.6937H17.875V12.9724H16.445C15.6523 15.0597 13.5919 16.5 10.8831 16.5H6.37794V12.9724H4.8125V11.6937H6.37794V10.3503H4.8125V9.07156H6.37794V5.5ZM7.63675 12.9724V15.3526H10.8818C12.8851 15.3526 14.3729 14.399 15.0652 12.9724H7.63675ZM15.4509 11.6937H7.63675V10.3503H15.4536C15.4818 10.5614 15.4969 10.7779 15.4969 10.9993V11.0303C15.4969 11.2564 15.4811 11.4771 15.4509 11.693V11.6937ZM10.8831 6.64469C12.8947 6.64469 14.3873 7.62369 15.0755 9.07019H7.63675V6.64538H10.8818L10.8831 6.64469Z" fill="white"/>
</svg>
