<svg width="22" height="22" viewBox="0 0 22 22" fill="none" xmlns="http://www.w3.org/2000/svg">
<path d="M11 22C13.1756 22 15.3023 21.3548 17.1113 20.1461C18.9202 18.9374 20.3301 17.2195 21.1627 15.2095C21.9952 13.1995 22.2131 10.9878 21.7886 8.854C21.3642 6.72021 20.3166 4.7602 18.7782 3.22182C17.2398 1.68345 15.2798 0.635803 13.146 0.211367C11.0122 -0.21307 8.80049 0.00476607 6.7905 0.837329C4.78052 1.66989 3.06256 3.07979 1.85386 4.88872C0.645171 6.69766 3.33029e-05 8.8244 3.33029e-05 11C-0.00352796 12.4455 0.278564 13.8775 0.830104 15.2137C1.38164 16.5499 2.19176 17.7639 3.21391 18.7861C4.23606 19.8082 5.45011 20.6184 6.78629 21.1699C8.12248 21.7214 9.55448 22.0035 11 22Z" fill="#2775CA"/>
<path d="M14.025 12.742C14.025 11.142 13.063 10.587 11.138 10.358C9.76198 10.175 9.48798 9.80801 9.48798 9.16701C9.48798 8.52601 9.94598 8.11201 10.862 8.11201C11.688 8.11201 12.146 8.38701 12.375 9.07501C12.3996 9.14129 12.4439 9.19842 12.5021 9.23867C12.5602 9.27891 12.6293 9.30032 12.7 9.30001H13.433C13.4754 9.30111 13.5177 9.29355 13.5571 9.27781C13.5965 9.26207 13.6324 9.23847 13.6624 9.20844C13.6924 9.17841 13.716 9.14258 13.7318 9.10314C13.7475 9.06369 13.7551 9.02146 13.754 8.97901V8.93401C13.6654 8.43724 13.4153 7.98364 13.0424 7.64367C12.6695 7.30371 12.1948 7.09642 11.692 7.05401V5.95401C11.692 5.77101 11.554 5.63401 11.325 5.58801H10.637C10.454 5.58801 10.317 5.72501 10.271 5.95401V7.01201C8.89198 7.20001 8.02099 8.11201 8.02099 9.25801C8.02099 10.771 8.93798 11.367 10.863 11.596C12.146 11.825 12.563 12.096 12.563 12.833C12.563 13.57 11.922 14.071 11.051 14.071C9.85898 14.071 9.45098 13.571 9.30898 12.879C9.29588 12.8017 9.25608 12.7314 9.19651 12.6805C9.13695 12.6295 9.06138 12.601 8.98298 12.6H8.19999C8.15757 12.599 8.1154 12.6067 8.07602 12.6225C8.03664 12.6383 8.00087 12.6619 7.97087 12.6919C7.94087 12.7219 7.91726 12.7577 7.90147 12.797C7.88568 12.8364 7.87803 12.8786 7.87899 12.921V12.967C8.06299 14.113 8.79598 14.938 10.309 15.167V16.267C10.309 16.45 10.446 16.588 10.675 16.634H11.363C11.546 16.634 11.684 16.496 11.729 16.267V15.167C13.104 14.938 14.021 13.975 14.021 12.738L14.025 12.742Z" fill="white"/>
<path d="M8.66207 17.554C7.3433 17.0703 6.20483 16.1933 5.40056 15.0417C4.5963 13.89 4.16501 12.5192 4.16501 11.1145C4.16501 9.70982 4.5963 8.339 5.40056 7.18735C6.20483 6.03569 7.3433 5.15874 8.66207 4.67502C8.75007 4.63697 8.82397 4.57236 8.87346 4.49025C8.92294 4.40813 8.94553 4.31261 8.93807 4.21703V3.57503C8.94425 3.49082 8.91968 3.40722 8.86893 3.33974C8.81818 3.27226 8.74469 3.22546 8.66207 3.20803C8.59756 3.2013 8.53274 3.21759 8.47907 3.25403C6.81049 3.78438 5.35396 4.83194 4.3203 6.2451C3.28664 7.65825 2.72949 9.36367 2.72949 11.1145C2.72949 12.8654 3.28664 14.5708 4.3203 15.9839C5.35396 17.3971 6.81049 18.4447 8.47907 18.975C8.51718 18.9971 8.55999 19.0099 8.604 19.0123C8.648 19.0147 8.69195 19.0067 8.73225 18.9888C8.77254 18.971 8.80803 18.9438 8.83581 18.9096C8.86359 18.8754 8.88287 18.8351 8.89207 18.792C8.93807 18.746 8.93807 18.7 8.93807 18.608V17.967C8.93807 17.829 8.80007 17.646 8.66207 17.554ZM13.5211 3.25403C13.4829 3.23189 13.44 3.21912 13.3959 3.21678C13.3519 3.21443 13.3079 3.22257 13.2676 3.24053C13.2273 3.25849 13.1918 3.28576 13.1641 3.32009C13.1363 3.35442 13.1171 3.39484 13.1081 3.43803C13.0631 3.48303 13.0631 3.52903 13.0631 3.62103V4.26203C13.0708 4.35446 13.0996 4.44389 13.1473 4.52346C13.1949 4.60303 13.2602 4.67061 13.3381 4.72102C14.6568 5.20474 15.7953 6.08169 16.5996 7.23335C17.4038 8.385 17.8351 9.75582 17.8351 11.1605C17.8351 12.5652 17.4038 13.936 16.5996 15.0877C15.7953 16.2393 14.6568 17.1163 13.3381 17.6C13.2502 17.6381 13.1764 17.7027 13.1271 17.7849C13.0778 17.867 13.0554 17.9625 13.0631 18.058V18.7C13.0569 18.7841 13.0813 18.8675 13.1318 18.935C13.1824 19.0025 13.2556 19.0494 13.3381 19.067C13.4026 19.0737 13.4674 19.0574 13.5211 19.021C15.189 18.4833 16.6434 17.4305 17.6751 16.0139C18.7069 14.5973 19.2627 12.89 19.2627 11.1375C19.2627 9.38505 18.7069 7.67773 17.6751 6.26115C16.6434 4.84457 15.189 3.79171 13.5211 3.25403Z" fill="white"/>
</svg>
