<svg width="32" height="17" viewBox="0 0 32 17" fill="none" xmlns="http://www.w3.org/2000/svg">
<path d="M1 6C1 6 3.5 4.33333 6 1M6 1C7.56894 3.74565 9.32251 5.38359 11 6.3483M6 1V16M11 6.3483C12.8865 7.43319 14.6767 7.66667 16 7.66667M11 6.3483V16M16 7.66667C17.3233 7.66667 19.1135 7.43327 21 6.34842M16 7.66667V16M21 6.34842C22.6775 5.38375 24.4311 3.7458 26 1M21 6.34842V16M26 1C28.5 4.33333 31 6 31 6M26 1V16M6 16H1M6 16H11M26 16H21M26 16H31M21 16H16M16 16H11" stroke="white" stroke-linecap="round" stroke-linejoin="round"/>
</svg>
