<svg width="51" height="36" viewBox="0 0 51 36" fill="none" xmlns="http://www.w3.org/2000/svg">
<path d="M44.2423 4.49598C41.0399 1.95978 37.242 0.428188 33.2661 0.0658751V2.01743C33.2661 2.22329 33.181 2.41268 33.0341 2.54443C32.8871 2.67618 32.6937 2.72558 32.5081 2.68441C27.9289 1.71275 23.2181 1.63864 18.6157 2.47032C18.4301 2.50325 18.2444 2.44561 18.0975 2.31386C17.9582 2.18211 17.8732 1.99272 17.8732 1.7951V0C13.8277 0.362313 9.96009 1.90214 6.70359 4.47127C2.82828 12.2857 0.701114 20.9565 0.5 29.792C3.41615 33.8433 7.98763 36.149 12.7757 35.9925C13.2166 35.3914 14.3305 33.8763 15.4443 32.5176L16.5118 31.0601C16.6742 30.8378 16.9449 30.7472 17.1925 30.8296C21.7021 32.2047 26.4514 32.46 31.0693 31.5542H31.0848C31.9589 31.3483 32.8561 31.1342 33.738 30.8954C33.9932 30.8213 34.2639 30.9284 34.4186 31.1589L35.1922 32.3282C36.0972 33.654 37.2961 35.1691 37.768 35.7373C42.4864 35.729 46.9883 33.6457 50.2216 29.9897C50.3376 29.8661 50.4304 29.7591 50.5 29.6685C50.268 20.8742 48.1253 12.261 44.2423 4.49598ZM17.3472 26.2265C14.4774 26.1771 12.1801 23.6656 12.2188 20.6024C12.1801 17.5804 14.4155 15.0772 17.2543 14.9701C17.293 14.9701 17.324 14.9701 17.3626 14.9701C20.2324 15.0278 22.5142 17.5393 22.4756 20.5942C22.5065 23.6492 20.2169 26.1689 17.3472 26.2265ZM33.4131 26.2265C30.5433 26.1771 28.246 23.6574 28.2924 20.6024C28.2537 17.5887 30.4737 15.0936 33.3048 14.9701C33.3435 14.9701 33.3821 14.9701 33.4208 14.9701C36.2906 15.0195 38.5802 17.531 38.5415 20.5942C38.5724 23.6492 36.2828 26.1689 33.4131 26.2265Z" fill="#00B2FF"/>
</svg>
