<svg width="57" height="16" viewBox="0 0 57 16" fill="none" xmlns="http://www.w3.org/2000/svg">
<path d="M16.2815 7.59267C16.1405 5.62609 15.2598 3.78594 13.8165 2.44266C12.3733 1.09939 10.4747 0.352742 8.50309 0.353027C6.43512 0.353027 4.45185 1.17453 2.98958 2.6368C1.52731 4.09907 0.705811 6.08234 0.705811 8.15031C0.705811 10.2183 1.52731 12.2015 2.98958 13.6638C4.45185 15.1261 6.43512 15.9476 8.50309 15.9476C9.77994 15.9484 11.0374 15.6354 12.1649 15.0361C13.2923 14.4368 14.2552 13.5695 14.9687 12.5107L12.3706 10.7712C11.9452 11.4064 11.3697 11.9269 10.6951 12.2867C10.0205 12.6465 9.26763 12.8344 8.50309 12.8339C7.2682 12.8339 6.08387 12.3434 5.21063 11.4702C4.33738 10.5971 3.84674 9.4128 3.84663 8.17791C3.84721 6.94331 4.33805 5.75949 5.21125 4.8867C6.08444 4.01392 7.2685 3.52363 8.50309 3.52363C9.45754 3.52373 10.3889 3.81701 11.1712 4.3638C11.9535 4.91059 12.549 5.68448 12.877 6.58078H7.29977V9.72291H16.3013V8.15162C16.3013 7.96355 16.2947 7.77724 16.2815 7.59267Z" fill="#fff"/>
<path d="M27.2814 0.36969V3.43604C24.5878 3.67915 22.5982 5.48742 22.5982 8.28174V15.8241H19.4241V8.22742C19.424 7.19555 19.6272 6.17377 20.022 5.22043C20.4169 4.26709 20.9956 3.40086 21.7253 2.67119C22.4549 1.94153 23.3211 1.36273 24.2744 0.967832C25.2277 0.572938 26.2495 0.36969 27.2814 0.36969Z" fill="#fff"/>
<path d="M44.501 8.32708V15.8331L41.3572 15.8103C41.3572 15.8103 41.3646 8.40724 41.3646 8.17902C41.3647 7.93878 41.3462 7.6989 41.3094 7.46149C41.1382 6.36344 40.5802 5.36273 39.7361 4.63989C38.8919 3.91706 37.8173 3.51969 36.706 3.51949C35.4705 3.51949 34.2856 4.01025 33.4119 4.88382C32.5383 5.75739 32.0474 6.94223 32.0473 8.1777C32.0472 8.78952 32.1677 9.39536 32.4018 9.96063C32.6359 10.5259 32.979 11.0395 33.4116 11.4722C33.8442 11.9048 34.3578 12.248 34.9231 12.4821C35.4883 12.7163 36.0941 12.8368 36.706 12.8368H40.2283V15.9145H36.4585C35.4602 15.9145 34.4718 15.7179 33.5496 15.3359C32.6273 14.9539 31.7894 14.394 31.0836 13.6881C30.3777 12.9822 29.8179 12.1442 29.4359 11.222C29.0539 10.2997 28.8574 9.31128 28.8574 8.31306V8.13784C28.8578 6.08234 29.6746 4.11115 31.1282 2.65786C32.5818 1.20456 34.5532 0.388189 36.6087 0.388306H36.67C41.0418 0.388306 44.501 3.95491 44.501 8.32708Z" fill="#fff"/>
<path d="M56.8233 3.49756H49.2148V15.8225H56.8233V3.49756Z" fill="#fff"/>
</svg>
