<svg id="Capa_1" data-name="Capa 1" xmlns="http://www.w3.org/2000/svg" viewBox="0 0 512 512"><defs><style>.cls-1{fill:#76c5ff;}</style></defs><path class="cls-1" d="M283,101a10,10,0,0,0-10-10H96a10,10,0,0,0-10,10V218a10,10,0,0,0,10,10H273a10,10,0,0,0,10-10ZM263,208H106V111H263Z"/><path class="cls-1" d="M484.55,450H317V290h16.3A26.74,26.74,0,0,1,360,316.9v27.9a53,53,0,0,0,106,0V186.6a65.09,65.09,0,0,0-17.3-44.3l-78.2-89.1-15,13.2,60.6,69.1a40.23,40.23,0,0,0,6.7,79.9A41,41,0,0,0,446,208V344.8a33,33,0,0,1-66,0V317.1a46.88,46.88,0,0,0-46.6-47.1H317V83.7c0-22.8-18.4-41.7-41.2-41.7H90c-22.8,0-41,19-41,41.7V450H27.35a10,10,0,0,0,0,20h457.3a10,10,0,1,0-.1-20Zm-61.8-254.7A20.2,20.2,0,1,1,443,175.1h0A20.27,20.27,0,0,1,422.75,195.3ZM69,450V83.7C69,71.9,78.15,62,90,62h185.8c11.8,0,21.2,10,21.2,21.7V450Z"/></svg>