<?xml version="1.0" standalone="no"?>
<!DOCTYPE svg PUBLIC "-//W3C//DTD SVG 20010904//EN"
 "http://www.w3.org/TR/2001/REC-SVG-20010904/DTD/svg10.dtd">
<svg version="1.0" xmlns="http://www.w3.org/2000/svg"
 width="256.000000pt" height="256.000000pt" viewBox="0 0 256.000000 256.000000"
 preserveAspectRatio="xMidYMid meet">

<g transform="translate(0.000000,256.000000) scale(0.100000,-0.100000)"
fill="#fff" stroke="none">
<path d="M1095 2538 c-2 -7 -14 -50 -25 -96 -27 -109 -76 -241 -140 -381 -60
-133 -69 -150 -243 -449 -200 -346 -260 -484 -293 -673 -19 -109 -14 -268 11
-364 43 -167 166 -331 329 -440 75 -50 204 -115 228 -115 5 0 -21 34 -60 75
-48 51 -83 102 -113 162 -43 87 -44 89 -43 188 1 129 17 188 104 381 40 87 84
195 98 240 15 46 33 84 39 84 19 0 97 -104 132 -177 18 -35 39 -96 48 -135
l16 -71 23 39 c43 71 113 248 145 370 30 111 32 131 33 296 0 98 4 178 7 178
14 0 202 -204 258 -279 129 -175 215 -400 228 -596 17 -260 -84 -533 -262
-709 l-60 -59 43 7 c24 3 71 18 105 32 212 85 386 291 453 534 28 100 25 370
-4 507 -85 393 -277 691 -766 1191 -215 219 -284 281 -291 260z"/>
</g>
</svg>
