<svg width="21" height="25" viewBox="0 0 21 25" fill="none" xmlns="http://www.w3.org/2000/svg">
<path d="M16.1163 10.0439V7.45995C16.1163 3.89222 13.5133 1 10.3023 1C7.09137 1 4.48837 3.89222 4.48837 7.45995V10.0439M10.3023 15.8579V18.4419M6.5814 24.2558H14.0233C15.9769 24.2558 16.9538 24.2558 17.7 23.8334C18.3563 23.4618 18.89 22.8688 19.2244 22.1395C19.6047 21.3104 19.6047 20.225 19.6047 18.0543V16.2455C19.6047 14.0747 19.6047 12.9894 19.2244 12.1602C18.89 11.4309 18.3563 10.838 17.7 10.4664C16.9538 10.0439 15.9769 10.0439 14.0233 10.0439H6.5814C4.62772 10.0439 3.65089 10.0439 2.90468 10.4664C2.24831 10.838 1.71465 11.4309 1.38021 12.1602C1 12.9894 1 14.0747 1 16.2455V18.0543C1 20.225 1 21.3104 1.38021 22.1395C1.71465 22.8688 2.24831 23.4618 2.90468 23.8334C3.65089 24.2558 4.62772 24.2558 6.5814 24.2558Z" stroke="#00B2FF" stroke-width="1.1628" stroke-linecap="round" stroke-linejoin="round"/>
</svg>
