
<svg width="24" height="22" viewBox="0 0 24 22" fill="none" xmlns="http://www.w3.org/2000/svg">
<path d="M12.25 18.5H5C3.59987 18.5 2.8998 18.5 2.36502 18.2275C1.89462 17.9878 1.51217 17.6054 1.27248 17.135C1 16.6002 1 15.9001 1 14.5V5C1 3.59987 1 2.8998 1.27248 2.36502C1.51217 1.89462 1.89462 1.51217 2.36502 1.27248C2.8998 1 3.59987 1 5 1H19.5C20.9001 1 21.6002 1 22.135 1.27248C22.6054 1.51217 22.9878 1.89462 23.2275 2.36502C23.5 2.8998 23.5 3.59987 23.5 5V9.75M1 6H23.5M19.75 21V13.5M23.5 17.251L16 17.25" stroke="white" stroke-linecap="round" stroke-linejoin="round"/>
</svg>
