<svg width="20" height="20" viewBox="0 0 20 20" fill="none" xmlns="http://www.w3.org/2000/svg">
<path d="M9.18887 0.962373H9.20379C9.45478 0.967699 9.70524 0.969297 9.9557 0.969297C10.2221 0.969297 10.4886 0.967522 10.755 0.963971H10.7636C10.9058 0.963971 10.9671 1.01723 10.9895 1.16316C11.0737 1.69947 11.1723 2.23311 11.2559 2.76942C11.3018 3.05808 11.4632 3.23596 11.7403 3.30839C12.343 3.46616 12.922 3.70329 13.4621 4.01353C13.566 4.07672 13.6848 4.11127 13.8064 4.11365C13.9575 4.10907 14.103 4.05541 14.2209 3.9608C14.6531 3.64125 15.0922 3.33449 15.526 3.0176C15.5664 2.98307 15.6168 2.96235 15.6699 2.95849C15.699 2.96025 15.7274 2.96808 15.7532 2.98148C15.7791 2.99487 15.8019 3.01352 15.8201 3.03624C16.1932 3.42023 16.5784 3.79677 16.9568 4.17756C16.9948 4.21425 17.0182 4.26356 17.0224 4.31623C17.0266 4.36889 17.0114 4.42129 16.9797 4.46356C16.9701 4.47581 16.9616 4.48752 16.9536 4.49871C16.6552 4.92051 16.3616 5.34605 16.053 5.76039C15.8489 6.03467 15.8622 6.28765 16.0067 6.59069C16.2526 7.10231 16.4709 7.62677 16.6605 8.1618C16.7729 8.48135 16.9472 8.66455 17.2813 8.71515C17.7854 8.79078 18.2864 8.88824 18.791 8.9612C18.9802 8.98836 19.0457 9.06452 19.0415 9.25678C19.0292 9.76007 19.0324 10.2644 19.0415 10.7677C19.0415 10.9344 18.9786 11.0036 18.8182 11.0281C18.3077 11.1054 17.7993 11.198 17.2883 11.2742C16.9573 11.3237 16.774 11.4979 16.66 11.8196C16.4668 12.3604 16.2461 12.891 15.9987 13.4093C15.8537 13.7145 15.8532 13.9675 16.0557 14.2391C16.36 14.6486 16.6419 15.0726 16.9472 15.4827C17.0538 15.6259 17.0612 15.7239 16.9238 15.8555C16.5545 16.208 16.1948 16.5702 15.8404 16.9382C15.8196 16.9651 15.7935 16.9875 15.7637 17.0039C15.7339 17.0203 15.7011 17.0304 15.6672 17.0335C15.606 17.0284 15.5481 17.0037 15.502 16.9632C15.0805 16.6527 14.6494 16.3587 14.2257 16.0483C14.1034 15.9496 13.9523 15.8935 13.7952 15.8885C13.667 15.8907 13.5418 15.9275 13.4328 15.995C12.9171 16.2953 12.3633 16.5246 11.7862 16.6767C11.5 16.7529 11.3353 16.9302 11.2885 17.2269C11.2053 17.7498 11.1067 18.2702 11.0284 18.7937C11.0023 18.9673 10.9362 19.0366 10.762 19.0366H10.7481C10.4934 19.0309 10.2385 19.028 9.98341 19.028C9.73473 19.028 9.48605 19.0309 9.23737 19.0366H9.22245C9.04553 19.0366 8.98424 18.962 8.9592 18.7905C8.88459 18.2798 8.79134 17.7717 8.71194 17.2615C8.66291 16.9456 8.48812 16.7731 8.18331 16.665C7.65522 16.477 7.13352 16.2645 6.62568 16.0259C6.50352 15.9641 6.36926 15.9299 6.23241 15.9258C6.07269 15.9289 5.91858 15.9851 5.79437 16.0855C5.37392 16.3966 4.94175 16.69 4.5181 17C4.47246 17.0396 4.41533 17.0637 4.35504 17.0687C4.32082 17.0656 4.28761 17.0554 4.25753 17.0388C4.22744 17.0222 4.20113 16.9996 4.18025 16.9723C3.82055 16.5995 3.45392 16.2363 3.08356 15.8757C2.97219 15.7692 2.96047 15.6792 3.05426 15.5514C3.36387 15.1295 3.65855 14.6992 3.96976 14.2758C4.16693 14.0095 4.16213 13.7603 4.02305 13.4631C3.77525 12.9385 3.55357 12.4006 3.34788 11.8579C3.23544 11.5629 3.07024 11.3786 2.74785 11.3312C2.22402 11.2529 1.70392 11.1517 1.18062 11.0702C1.02075 11.0447 0.956273 10.9791 0.959471 10.8109C0.968707 10.2943 0.968707 9.77747 0.959471 9.26051C0.956806 9.10074 1.01276 9.0331 1.16623 9.00967C1.66981 8.93031 2.17126 8.83658 2.67591 8.76415C3.02388 8.71408 3.21625 8.53887 3.33189 8.19855C3.51695 7.662 3.7315 7.13608 3.97456 6.62317C4.1179 6.31694 4.11897 6.06556 3.91594 5.79394C3.60313 5.3748 3.31111 4.94182 3.00097 4.51841C2.90398 4.3858 2.90665 4.2958 3.02708 4.17916C3.39904 3.8202 3.76477 3.45467 4.1243 3.08258C4.14471 3.05621 4.17034 3.03433 4.19959 3.0183C4.22883 3.00226 4.26107 2.99242 4.29429 2.98938C4.35601 2.99467 4.41443 3.01948 4.46108 3.06021C4.8778 3.36644 5.30625 3.65563 5.72083 3.9656C5.84271 4.06424 5.99407 4.11935 6.15087 4.12217C6.29057 4.11708 6.42734 4.08068 6.55107 4.01566C7.06265 3.7712 7.58648 3.54805 8.1199 3.35526C8.45295 3.23543 8.6352 3.04583 8.68476 2.69592C8.75617 2.19157 8.85582 1.69094 8.93309 1.18712C8.95867 1.02202 9.02687 0.960244 9.19154 0.960244M10.001 14.3813C11.1638 14.3797 12.2786 13.9178 13.1014 13.0966C13.9241 12.2754 14.3878 11.1619 14.3909 9.99973C14.4059 7.5962 12.4192 5.60062 10.017 5.60062H9.99034C8.82565 5.6033 7.70962 6.06776 6.88726 6.89204C6.0649 7.71632 5.60342 8.83305 5.60413 9.99707C5.60498 11.16 6.06757 12.2752 6.89035 13.0976C7.71312 13.92 8.82882 14.3824 9.99247 14.3834H9.99833M9.18887 0.00372845C8.55314 0.00372845 8.0794 0.411685 7.98241 1.04386C7.94937 1.25689 7.91261 1.46992 7.87584 1.69307C7.83161 1.94658 7.78631 2.20755 7.74741 2.47224C7.24063 2.65705 6.71947 2.87647 6.19457 3.12518C5.9958 2.97926 5.79597 2.83812 5.602 2.69912C5.40803 2.56012 5.21565 2.4259 5.02808 2.2885C4.81776 2.12531 4.55999 2.03502 4.29376 2.03126C4.07048 2.03126 3.74008 2.09837 3.43154 2.41898C3.09955 2.76409 2.74891 3.11453 2.3599 3.49C1.89682 3.93843 1.8446 4.56368 2.22562 5.08455V5.08721C2.36417 5.27521 2.49792 5.46481 2.63914 5.66506C2.78035 5.86531 2.92583 6.07089 3.07611 6.2754C2.83884 6.78287 2.62807 7.3023 2.44463 7.8316C2.1638 7.87367 1.88457 7.92054 1.61386 7.96634C1.41775 7.99989 1.21526 8.03398 1.01809 8.0654C0.38928 8.16286 -0.0103872 8.63952 0.000270605 9.27915C0.00879683 9.79788 0.00879683 10.3086 0.000270605 10.7965C-0.0119858 11.4382 0.393009 11.9192 1.03088 12.0214C1.26695 12.0582 1.50781 12.0997 1.74122 12.1407C1.97462 12.1817 2.22615 12.2249 2.47447 12.2632C2.69189 12.8336 2.90505 13.3417 3.12513 13.8114C2.98178 14.0074 2.8427 14.2039 2.70735 14.3973C2.57199 14.5906 2.42438 14.7967 2.28103 14.9905C1.90481 15.5034 1.95704 16.1223 2.41372 16.5681C2.82032 16.9643 3.17256 17.3163 3.49069 17.6449C3.8003 17.9645 4.13016 18.0337 4.35504 18.0337C4.62105 18.0289 4.87817 17.9372 5.08723 17.7727C5.2812 17.63 5.47784 17.491 5.68673 17.3467C5.8791 17.2103 6.07734 17.0703 6.27291 16.9265C6.75251 17.1496 7.26195 17.3579 7.78151 17.5453C7.81029 17.7253 7.84013 17.9032 7.86944 18.0779C7.91687 18.3602 7.96536 18.652 8.00693 18.9348C8.10071 19.5825 8.57658 20 9.21925 20H9.25602C9.49422 19.9941 9.73562 19.9915 9.98128 19.9915C10.2269 19.9915 10.4753 19.9915 10.7273 20H10.7625C11.4052 20 11.8816 19.5841 11.9785 18.9402C12.0217 18.6542 12.0723 18.3586 12.1214 18.0731C12.1507 17.9054 12.18 17.7328 12.2088 17.5592C12.7539 17.4016 13.2796 17.1833 13.776 16.9084C13.955 17.0388 14.1357 17.1667 14.3089 17.2908C14.5151 17.4367 14.7288 17.5879 14.9318 17.7376C15.142 17.901 15.3999 17.9914 15.6661 17.9948C15.89 17.9948 16.2214 17.9272 16.531 17.605C16.9099 17.2114 17.2552 16.8663 17.5851 16.5515C18.0647 16.0957 18.1153 15.4534 17.7172 14.9155C17.576 14.7248 17.4396 14.5315 17.2957 14.327C17.1652 14.1421 17.0293 13.9541 16.8928 13.7629C17.1422 13.2304 17.3597 12.71 17.5398 12.2089C17.7748 12.1727 18.0087 12.1338 18.2368 12.096C18.475 12.0566 18.7212 12.0156 18.9605 11.9793C19.5999 11.8813 20.0076 11.4025 19.9996 10.7587V10.7555C19.9932 10.3512 19.9873 9.81812 19.9996 9.28341C20.015 8.6081 19.5935 8.11174 18.9269 8.01534C18.6732 7.97859 18.4206 7.93545 18.1537 7.89018C17.9549 7.8561 17.7503 7.82095 17.5446 7.78899C17.3666 7.2889 17.1492 6.76644 16.8971 6.23439C17.1103 5.94413 17.3176 5.64855 17.5185 5.36415C17.5909 5.26136 17.6634 5.15804 17.7364 5.05525L17.7412 5.04886C17.913 4.82194 17.9968 4.54056 17.9772 4.25668C17.9576 3.9728 17.836 3.70559 17.6346 3.50438C17.4943 3.36236 17.3536 3.22158 17.2126 3.08204C16.9792 2.84877 16.7378 2.60805 16.5054 2.36998C16.3988 2.25507 16.2698 2.16325 16.1262 2.10022C15.9827 2.03719 15.8277 2.0043 15.6709 2.00357C15.4145 2.00583 15.1658 2.09124 14.9622 2.24696C14.765 2.39022 14.5636 2.53508 14.3686 2.67302C14.1735 2.81096 13.979 2.95263 13.7824 3.09536C13.2724 2.81754 12.7336 2.59593 12.1757 2.43443C12.1432 2.23737 12.1096 2.04191 12.0771 1.84859C12.0297 1.57431 11.9812 1.28991 11.9375 1.0135C11.8421 0.401034 11.3812 0.00159849 10.7652 0.00159849H10.7433C10.4396 0.00532655 10.1891 0.00692381 9.95677 0.00692381C9.69032 0.00692381 9.45319 0.00692355 9.22458 0L9.18887 0.00372845ZM9.9946 13.4248C9.54392 13.4258 9.09751 13.3376 8.68115 13.1652C8.26479 12.9928 7.88676 12.7396 7.56889 12.4203C7.24977 12.1026 6.99665 11.7249 6.82408 11.309C6.65151 10.8931 6.56289 10.4473 6.56333 9.99707C6.56139 9.54795 6.6485 9.1029 6.81963 8.68761C6.99076 8.27233 7.24252 7.89505 7.56037 7.57756C8.20462 6.93144 9.07924 6.56746 9.99194 6.56565H10.0133C10.4627 6.56635 10.9075 6.65651 11.3217 6.83089C11.7359 7.00527 12.1112 7.26037 12.4256 7.58129C12.745 7.89722 12.9982 8.27355 13.1705 8.68832C13.3427 9.10308 13.4307 9.54799 13.4291 9.99707C13.4282 10.4485 13.3383 10.8953 13.1646 11.312C12.9908 11.7287 12.7367 12.1071 12.4166 12.4256C12.0996 12.7437 11.7227 12.9959 11.3076 13.1676C10.8925 13.3392 10.4475 13.427 9.99833 13.4258L9.9946 13.4248Z" fill="#fff"/>
</svg>
