<svg width="43" height="36" viewBox="0 0 43 36" fill="none" xmlns="http://www.w3.org/2000/svg">
<path d="M42.6767 5.1917C41.7259 6.27158 40.6478 7.23516 39.4593 8.06583C39.264 8.20705 39.1536 8.43133 39.1621 8.66392C39.1961 9.12079 39.1961 9.49459 39.1961 9.84347C39.1367 16.3393 36.6918 22.5943 32.3113 27.4787C27.3111 33.0525 20.0528 36.1675 12.4804 35.993C8.34609 36.0014 4.27124 35.0627 0.569919 33.2601C4.857 33.1355 8.99127 31.6735 12.37 29.0985C12.6077 28.9157 12.7011 28.6167 12.6077 28.3342C12.5143 28.0601 12.2512 27.8691 11.954 27.8608C8.54983 27.7777 5.48521 25.8256 4.03354 22.8186C4.26275 22.8352 4.49196 22.8352 4.76362 22.8352C5.68046 22.8435 6.58881 22.7272 7.47169 22.5029C7.7858 22.4199 7.99803 22.1374 7.98954 21.8135C7.98105 21.4978 7.74335 21.2237 7.42925 21.1572C3.63454 20.393 0.782151 17.3444 0.32373 13.5898C1.46129 14.0467 2.67526 14.2959 3.89771 14.3208C4.21182 14.3374 4.49196 14.138 4.58534 13.839C4.67873 13.5483 4.56836 13.2326 4.31369 13.0582C1.83482 11.4467 0.349198 8.71376 0.349198 5.7981C0.349198 4.58531 0.603876 3.38084 1.11323 2.26774C6.1219 7.84155 13.2189 11.2058 20.7914 11.5796C21.0121 11.5879 21.2243 11.4965 21.3686 11.3304C21.5129 11.1642 21.5639 10.9483 21.5129 10.7323C21.3686 10.0761 21.3007 9.40321 21.3092 8.73037C21.3177 3.92077 25.3076 0.00830673 30.2314 0C32.7018 0.00830673 35.0618 1.00511 36.7512 2.76614C36.921 2.94058 37.1672 3.01534 37.4049 2.97381C38.9584 2.67477 40.478 2.19298 41.9127 1.54505C41.1486 2.81598 40.0705 3.87924 38.7716 4.63515C38.483 4.80129 38.3557 5.14186 38.466 5.44921C38.5764 5.75656 38.8905 5.94762 39.2216 5.90608C40.4016 5.76487 41.5476 5.52397 42.6767 5.1917Z" fill="#00B2FF"/>
</svg>
