<svg width="24" height="20" viewBox="0 0 24 20" fill="none" xmlns="http://www.w3.org/2000/svg">
<path d="M7.53321 19.8566C4.76035 19.8566 2.17558 19.0501 0 17.6586C1.84714 17.7781 5.10692 17.4919 7.1345 15.5579C4.08435 15.418 2.7088 13.0787 2.52938 12.079C2.78854 12.1789 4.02454 12.2989 4.72229 12.019C1.21363 11.1393 0.675367 8.06018 0.79498 7.12047C1.45285 7.58033 2.56925 7.74028 3.00783 7.70029C-0.261606 5.361 0.914594 1.84206 1.49273 1.08229C3.83899 4.33281 7.35532 6.15842 11.7055 6.25997C11.6234 5.90024 11.5801 5.52573 11.5801 5.14107C11.5801 2.38048 13.8115 0.142578 16.564 0.142578C18.0022 0.142578 19.2981 0.753502 20.2077 1.73071C21.1688 1.50551 22.6151 0.97834 23.3222 0.522463C22.9658 1.80208 21.8562 2.86954 21.1851 3.26518C21.1796 3.25166 21.1906 3.27864 21.1851 3.26518C21.7746 3.176 23.3698 2.86943 24 2.44188C23.6884 3.16076 22.512 4.35601 21.5466 5.02517C21.7262 12.9465 15.6656 19.8566 7.53321 19.8566Z" fill="white"/>
</svg>
