<svg width="24" height="24" viewBox="0 0 24 24" fill="none" xmlns="http://www.w3.org/2000/svg">
<path d="M12.0002 0C5.38315 0 0 5.38314 0 11.9998C0 18.6165 5.38315 23.9996 12.0002 23.9996C18.6172 23.9996 24 18.6165 24 11.9998C24 5.38314 18.6168 0 12.0002 0ZM18.299 11.5551H12.4445V7.27279C14.1891 7.26003 15.9329 7.17072 17.6294 7.00742C18.038 8.42902 18.2633 9.95852 18.299 11.5555V11.5551ZM18.2582 6.05093C17.9735 5.20064 17.6046 4.38091 17.157 3.60395C16.6499 2.73604 16.0729 2.00774 15.4394 1.43619C17.7379 2.19221 19.7296 3.67252 21.1163 5.65544C20.1635 5.81509 19.2023 5.94814 18.2593 6.05166L18.2582 6.05093ZM12.4445 6.38301V0.917846C14.4512 1.16681 16.2821 3.11404 17.3542 6.1406C15.747 6.28969 14.0958 6.3728 12.4445 6.38373V6.38301ZM17.3542 17.8583C16.2821 20.8837 14.4512 22.8321 12.4445 23.081V17.6159C14.0958 17.6279 15.747 17.7092 17.3542 17.859V17.8583ZM12.4445 16.7265V12.4441H18.299C18.2625 14.0411 18.038 15.5709 17.6294 16.9926C15.9315 16.8289 14.1876 16.7396 12.4445 16.7272V16.7265ZM15.4394 22.562C16.0729 21.9908 16.6499 21.2625 17.157 20.3942C17.605 19.6177 17.9743 18.7983 18.2593 17.9483C19.1997 18.0511 20.1606 18.1841 21.1174 18.3438C19.7304 20.3268 17.7383 21.807 15.4394 22.5627V22.562ZM23.0989 12.4434C23.0268 14.2321 22.5232 15.9768 21.631 17.5288C20.5943 17.3465 19.5504 17.1978 18.5261 17.0822C18.9307 15.6293 19.153 14.0691 19.188 12.4434H23.0989ZM23.0989 11.5547H19.188C19.1516 9.929 18.9307 8.36888 18.5261 6.91629C19.5504 6.80037 20.5947 6.65019 21.631 6.4694C22.5232 8.0216 23.0268 9.76655 23.0989 11.5555V11.5547ZM5.47391 17.083C4.44963 17.1985 3.40529 17.3487 2.36861 17.5295C1.47661 15.9775 0.973124 14.2328 0.901079 12.4441H4.81196C4.84513 14.0699 5.0693 15.6315 5.47391 17.083ZM0.901079 11.5555C0.973124 9.76683 1.47661 8.02214 2.36861 6.47013C3.40529 6.65238 4.44963 6.8011 5.47391 6.91702C5.0693 8.36997 4.84659 9.93009 4.81196 11.5555H0.901079ZM5.74183 17.9483C6.02645 18.7985 6.39535 19.6181 6.84303 20.3949C7.35043 21.2632 7.92746 21.9915 8.56025 22.5627C6.26185 21.8068 4.27021 20.3266 2.88367 18.3438C3.84016 18.1831 4.80102 18.0515 5.74183 17.9483ZM5.701 12.4441H11.5555V16.7272C9.81237 16.7396 8.06816 16.8289 6.37062 16.9926C5.962 15.5706 5.73673 14.0407 5.701 12.4441ZM11.5555 17.6159V23.0818C9.54882 22.8328 7.71786 20.8856 6.64582 17.859C8.25297 17.7092 9.90422 17.6279 11.5555 17.6159ZM11.5555 7.27279V11.5555H5.701C5.73745 9.95889 5.962 8.42902 6.37062 7.00742C8.06707 7.17072 9.81091 7.26003 11.5555 7.27279ZM6.84303 3.60468C6.39526 4.38156 6.02635 5.20131 5.74183 6.05166C4.79774 5.94814 3.83687 5.81509 2.88367 5.65616C4.27034 3.67325 6.26209 2.19294 8.56062 1.43691C7.92746 2.00811 7.35043 2.73641 6.84303 3.60468ZM11.5555 0.917846V6.38556C9.90422 6.37353 8.25297 6.29151 6.64582 6.14243C7.71786 3.11404 9.54736 1.16681 11.5555 0.917846Z" fill="white"/>
</svg>
