<svg width="22" height="22" viewBox="0 0 22 22" fill="none" xmlns="http://www.w3.org/2000/svg">
<path d="M22 11C22 4.92487 17.0751 0 11 0C4.92487 0 0 4.92487 0 11C0 17.0751 4.92487 22 11 22C17.0751 22 22 17.0751 22 11Z" fill="#E84142"/>
<path fill-rule="evenodd" clip-rule="evenodd" d="M7.89545 15.3832H5.77133C5.32022 15.3832 5.09914 15.3832 4.9647 15.2966C4.89319 15.2503 4.8337 15.1877 4.79111 15.114C4.74852 15.0402 4.72405 14.9574 4.71973 14.8724C4.71973 14.711 4.82131 14.5168 5.04238 14.1285L10.3153 4.83732C10.5394 4.44297 10.6529 4.23982 10.7963 4.17111C10.8723 4.13277 10.9562 4.11279 11.0413 4.11279C11.1264 4.11279 11.2103 4.13277 11.2863 4.17111C11.4297 4.24579 11.5432 4.44297 11.7673 4.83732L12.8517 6.72841C13.0292 6.99617 13.1699 7.28657 13.27 7.5918C13.3297 7.8392 13.3297 8.09725 13.27 8.34465C13.1697 8.65316 13.028 8.94662 12.8487 9.217L10.0763 14.1195C9.93528 14.4127 9.75321 14.6843 9.53558 14.9261C9.35095 15.1037 9.12668 15.2348 8.88132 15.3085C8.55728 15.3758 8.22592 15.4009 7.89545 15.3832Z" fill="white"/>
<path fill-rule="evenodd" clip-rule="evenodd" d="M13.288 15.3832H16.3472C16.7983 15.3832 17.0254 15.3832 17.1598 15.2936C17.2319 15.2472 17.2918 15.1842 17.3344 15.1099C17.377 15.0355 17.4012 14.952 17.4048 14.8664C17.4048 14.711 17.3062 14.5258 17.0911 14.1583L17.0702 14.1195L15.5376 11.4995L15.5197 11.4696C15.3046 11.1051 15.197 10.9229 15.0566 10.8512C14.9806 10.8128 14.8967 10.7928 14.8116 10.7928C14.7265 10.7928 14.6426 10.8128 14.5666 10.8512C14.4262 10.9229 14.3127 11.1141 14.0887 11.5024L12.562 14.1195C12.338 14.5049 12.2244 14.6991 12.2334 14.8574C12.2389 14.9426 12.2638 15.0254 12.3063 15.0995C12.3487 15.1735 12.4076 15.2369 12.4784 15.2846C12.6098 15.3832 12.8369 15.3832 13.288 15.3832Z" fill="white"/>
</svg>
