<svg width="27" height="28" viewBox="0 0 27 28" fill="none" xmlns="http://www.w3.org/2000/svg">
<path d="M13.5 27.2646C20.9558 27.2646 27 21.2205 27 13.7646C27 6.3088 20.9558 0.264648 13.5 0.264648C6.04416 0.264648 0 6.3088 0 13.7646C0 21.2205 6.04416 27.2646 13.5 27.2646Z" fill="#F3BA2F"/>
<path d="M10.2229 12.4181L13.5 9.14096L16.7788 12.4198L18.6857 10.5129L13.5 5.32721L8.316 10.5112L10.2229 12.4181ZM5.0625 13.7647L6.96938 11.8578L8.87625 13.7647L6.96938 15.6716L5.0625 13.7647ZM10.2229 15.1113L13.5 18.3885L16.7788 15.1096L18.6857 17.0157L13.5 22.2022L8.316 17.0182L8.31347 17.0157L10.2229 15.1113ZM18.1237 13.7647L20.0306 11.8578L21.9375 13.7647L20.0306 15.6716L18.1237 13.7647ZM15.4339 13.763H15.4356V13.7647L13.5 15.7003L11.567 13.7681L11.5636 13.7647L11.567 13.7622L11.9053 13.423L12.0698 13.2585L13.5 11.8291L15.4347 13.7639L15.4339 13.763Z" fill="white"/>
</svg>
