<svg width="20" height="20" viewBox="0 0 20 20" fill="none" xmlns="http://www.w3.org/2000/svg">
<path d="M20 10C20 4.47715 15.5228 1.22882e-06 10 1.47023e-06C4.47715 1.71165e-06 -6.78525e-07 4.47715 -4.37114e-07 10C-1.95703e-07 15.5228 4.47715 20 10 20C15.5228 20 20 15.5228 20 10Z" fill="#627EEA"/>
<path d="M10.3115 2.5V8.04318L14.9965 10.1372L10.3115 2.5Z" fill="#E1E1E1"/>
<path d="M10.3117 2.5011L5.62402 10.1383L10.3117 8.04428V2.5011Z" fill="white"/>
<path d="M10.3115 13.7315V17.4985L14.9992 11.0102L10.3115 13.7315Z" fill="#CECECE"/>
<path d="M10.3117 17.4969V13.7299L5.62402 11.0113L10.3117 17.4996V17.4969Z" fill="white"/>
<path d="M10.3115 12.8551L14.9965 10.1338L10.3115 8.04254V12.8551Z" fill="#D7D7D7"/>
<path d="M5.62402 10.1365L10.3117 12.8579V8.04254L5.62402 10.1338V10.1365Z" fill="#E1E1E1"/>
</svg>
