<svg width="22" height="22" viewBox="0 0 22 22" fill="none" xmlns="http://www.w3.org/2000/svg">
<path d="M22 11C22 4.92487 17.0751 0 11 0C4.92487 0 0 4.92487 0 11C0 17.0751 4.92487 22 11 22C17.0751 22 22 17.0751 22 11Z" fill="#A05CE8"/>
<path d="M7.80155 5.1626H8.31539C8.39607 5.17805 8.47248 5.21066 8.53946 5.2582L9.42078 5.77802L10.317 6.3098C10.6158 6.49204 10.9414 6.67428 11.2491 6.86249C11.3637 6.92883 11.4614 7.02081 11.5344 7.13121C11.6075 7.24161 11.6541 7.36744 11.6704 7.49883C11.6736 7.5376 11.6736 7.57657 11.6704 7.61534C11.6704 7.98579 11.6704 8.35923 11.6704 8.73267C11.672 8.75407 11.6671 8.77546 11.6565 8.7941C11.6459 8.81273 11.6299 8.82775 11.6106 8.83723C11.4194 8.94179 11.2282 9.05532 11.037 9.16287L10.4694 9.4915L10.3678 9.54826C10.334 9.56618 10.316 9.55722 10.314 9.52137C10.3126 9.50447 10.3126 9.48748 10.314 9.47058C10.314 9.12403 10.314 8.7745 10.314 8.42794C10.3168 8.22985 10.2515 8.03682 10.1288 7.88123C10.0536 7.79161 9.96242 7.71666 9.85994 7.66015L8.53349 6.85054C8.41943 6.77594 8.29296 6.72232 8.16005 6.6922C7.98392 6.6547 7.80036 6.67568 7.63723 6.75195C7.52968 6.80573 7.42512 6.87444 7.32056 6.93419L6.62745 7.33153C6.4482 7.43609 6.26597 7.53468 6.0927 7.63028C5.98113 7.69533 5.88646 7.78576 5.81638 7.89425C5.74631 8.00274 5.7028 8.12622 5.68938 8.25467C5.68938 8.28454 5.68938 8.31442 5.68938 8.34429C5.68938 8.92387 5.68938 9.50345 5.68938 10.083C5.69043 10.276 5.75795 10.4628 5.88058 10.6118C5.95877 10.704 6.05415 10.7801 6.1614 10.8359L7.2638 11.5081L7.56255 11.6903C7.66808 11.7489 7.78356 11.7873 7.90313 11.8038C8.05892 11.8246 8.21742 11.8008 8.36021 11.7351C8.43191 11.7023 8.49465 11.6574 8.56336 11.6186L9.85397 10.8478L10.3021 10.5819C10.4335 10.5043 10.568 10.4355 10.6994 10.3638C10.9086 10.2473 11.1177 10.1308 11.3268 10.0203C11.5927 9.87688 11.8556 9.72153 12.1155 9.56917L12.952 9.07922C13.1671 8.95374 13.3822 8.82528 13.6003 8.70279C13.6928 8.65211 13.7943 8.61965 13.899 8.60719C14.0454 8.58387 14.1953 8.59722 14.3352 8.64603C14.4238 8.68307 14.5088 8.72807 14.5892 8.78047L15.2882 9.18976L15.8857 9.53631L16.5788 9.93962L17.1763 10.2862C17.2587 10.3316 17.3367 10.3846 17.4094 10.4445C17.4841 10.5128 17.5477 10.5924 17.5976 10.6805C17.658 10.7816 17.689 10.8974 17.6872 11.0151C17.6843 11.0329 17.6843 11.0511 17.6872 11.0689V14.4209V14.4537C17.6878 14.6235 17.6274 14.7879 17.5169 14.9168C17.4274 15.025 17.3166 15.1134 17.1913 15.1767L16.2353 15.7264L15.0403 16.4106C14.8461 16.5211 14.6519 16.6316 14.4607 16.7452C14.3855 16.7891 14.2998 16.8118 14.2127 16.8109H13.7975C13.718 16.8083 13.6407 16.7845 13.5734 16.7422L12.6264 16.1895L11.8646 15.7414L10.9713 15.2723C10.8817 15.2185 10.792 15.1737 10.7054 15.114C10.6038 15.0466 10.5175 14.9585 10.4521 14.8556C10.3868 14.7527 10.3438 14.6371 10.326 14.5165C10.3276 14.5026 10.3276 14.4886 10.326 14.4747C10.326 14.0833 10.326 13.6949 10.326 13.3065C10.325 13.2899 10.329 13.2733 10.3375 13.2589C10.346 13.2445 10.3587 13.233 10.3738 13.2259L11.3597 12.6583L11.6256 12.5059C11.6644 12.485 11.6823 12.5059 11.6853 12.5388V12.5925C11.6853 12.9212 11.6853 13.2498 11.6853 13.5754C11.6823 13.5952 11.6823 13.6154 11.6853 13.6352V13.6889C11.6988 13.8599 11.7645 14.0226 11.8735 14.155C11.9578 14.2513 12.0591 14.3313 12.1723 14.391L12.7279 14.7166L13.4718 15.1528C13.6022 15.2376 13.7505 15.2908 13.905 15.3082C14.0313 15.322 14.159 15.3067 14.2785 15.2634C14.3202 15.2487 14.3603 15.2297 14.398 15.2066L15.1687 14.7495L15.823 14.3641C15.9289 14.3055 16.0211 14.2252 16.0937 14.1284C16.1663 14.0316 16.2176 13.9205 16.2442 13.8025C16.2587 13.7408 16.2657 13.6776 16.2652 13.6143C16.2652 13.0466 16.2652 12.479 16.2652 11.9084C16.2671 11.7014 16.1938 11.5008 16.059 11.3437C15.9768 11.2571 15.8809 11.1844 15.7752 11.1286L15.2195 10.803L14.5175 10.3489C14.4318 10.2946 14.3407 10.2496 14.2456 10.2145C14.1247 10.1782 13.9981 10.164 13.8722 10.1726C13.8612 10.174 13.8502 10.174 13.8393 10.1726C13.7271 10.1903 13.6195 10.2299 13.5226 10.2892C13.2567 10.4475 12.9849 10.5879 12.719 10.7552L12.0498 11.1406C11.8108 11.281 11.5688 11.4184 11.3268 11.5559L10.2603 12.1713L9.55223 12.5806L8.70975 13.0646L8.45581 13.2139C8.35012 13.2757 8.23343 13.3162 8.11225 13.3334H8.08835H8.04951C8.02962 13.332 8.00965 13.332 7.98976 13.3334H7.95391C7.93512 13.3303 7.91594 13.3303 7.89715 13.3334H7.8613C7.70577 13.307 7.55793 13.2468 7.42811 13.1572L6.72605 12.7449L6.19128 12.4402L5.57287 12.0787L5.19943 11.8636L5.16358 11.8337C4.99319 11.7445 4.82855 11.6447 4.67064 11.5349C4.52273 11.4203 4.41754 11.2594 4.37189 11.0779C4.35855 11.0181 4.35253 10.9569 4.35397 10.8956C4.35397 9.77531 4.35397 8.65798 4.35397 7.54065C4.3528 7.44138 4.37209 7.34293 4.41064 7.25144C4.44919 7.15995 4.50617 7.07738 4.57803 7.00888C4.63695 6.95184 4.7045 6.90445 4.77819 6.86847L5.39063 6.51295L6.32572 5.97221L6.95309 5.60475L7.61931 5.21936C7.67531 5.18766 7.73745 5.1683 7.80155 5.1626Z" fill="white"/>
</svg>
