<svg width="22" height="22" viewBox="0 0 22 22" fill="none" xmlns="http://www.w3.org/2000/svg">
<circle cx="11" cy="11" r="11" fill="white"/>
<path d="M6.41114 4.67126L18.5011 12.9263L15.5111 17.3463L3.42114 9.02626L6.41114 4.67126Z" fill="url(#paint0_linear_5_2110)"/>
<path d="M18.5012 12.9265C17.4612 14.4215 13.9512 13.8365 10.6362 11.4965C7.25622 9.22151 5.43622 6.16651 6.41122 4.67151C7.45122 3.17651 10.9612 3.76151 14.2762 6.10151C17.6562 8.31151 19.4762 11.4315 18.5012 12.9265Z" fill="url(#paint1_linear_5_2110)"/>
<path d="M15.5116 17.2813C14.4716 18.7763 10.9616 18.1913 7.64656 15.8513C4.33156 13.5113 2.44656 10.5213 3.48656 8.9613C4.52656 7.4663 8.03656 8.05131 11.3516 10.3913C14.6666 12.7313 16.4866 15.7863 15.5116 17.2813Z" fill="url(#paint2_linear_5_2110)"/>
<path d="M18.5017 12.9266L15.5117 17.3466C14.4717 18.8416 10.9617 18.1916 7.64666 15.9166C6.99666 15.4616 6.41166 15.0066 5.82666 14.4866C6.28166 14.4216 6.86666 14.1616 7.45166 13.5116C8.49166 12.4066 9.01166 12.1466 9.46666 12.2116C9.92166 12.2116 10.4417 12.6666 11.2867 13.7716C12.1317 14.8766 13.3017 15.2016 14.0167 14.6166C14.0817 14.5516 14.1467 14.5516 14.2117 14.4866C14.7967 14.0316 14.9917 13.8366 16.0967 11.7566C16.3567 11.2366 17.2667 10.3916 18.5017 10.7816C18.8267 11.6266 18.8267 12.3416 18.5017 12.9266Z" fill="#0E0F23"/>
<path fill-rule="evenodd" clip-rule="evenodd" d="M18.0462 12.6664C17.1362 13.9664 13.9512 13.3164 10.8962 11.1714C7.77619 9.02641 5.95619 6.29641 6.86619 4.99641C7.77619 3.69641 10.9612 4.34641 14.0162 6.49141C17.0712 8.63641 18.8912 11.3664 18.0462 12.6664ZM15.1862 10.7164C14.7312 11.3664 13.1712 11.0414 11.6112 10.0014C10.1162 8.96141 9.20619 7.59641 9.66119 6.94641C10.1162 6.29641 11.6762 6.62141 13.2362 7.66141C14.7312 8.70141 15.6412 10.0664 15.1862 10.7164Z" fill="white"/>
<path d="M6.1516 6.16663C6.1516 6.10163 6.0866 6.03663 6.0216 6.10163C5.9566 6.16663 5.8916 6.16663 5.8916 6.23163C5.9566 6.42663 6.0216 6.55663 6.0216 6.68663C6.0216 6.75163 6.0866 6.81663 6.1516 6.75163C6.2166 6.75163 6.2816 6.68663 6.2166 6.62163C6.2166 6.49163 6.2166 6.36163 6.1516 6.16663Z" fill="white"/>
<path d="M6.195 7.0918C6.195 7.0268 6.13 6.9618 6.065 7.0268C6 7.0918 6 7.0918 6 7.1568C6.715 8.7818 8.21 10.5368 10.16 11.8368C10.225 11.9018 10.29 11.8368 10.355 11.8368C10.42 11.7718 10.355 11.7068 10.355 11.6418C8.34 10.3418 6.91 8.6518 6.195 7.0918Z" fill="white"/>
<path d="M14.3419 13.5764C14.2769 13.5764 14.2119 13.5764 14.2119 13.6414C14.2119 13.7064 14.2119 13.7714 14.2769 13.7714C14.4719 13.8364 14.7319 13.9014 14.9269 13.9664C14.9919 13.9664 15.0569 13.9664 15.0569 13.9014C15.0569 13.8364 15.0569 13.7714 14.9919 13.7714C14.7969 13.7064 14.5369 13.6414 14.3419 13.5764Z" fill="white"/>
<path d="M15.5113 13.8365C15.4463 13.8365 15.3813 13.9015 15.3813 13.9665C15.3813 14.0315 15.4463 14.0965 15.5113 14.0965C16.0313 14.1615 16.6163 14.2265 17.0713 14.1615C17.1363 14.1615 17.2013 14.0965 17.2013 14.0315C17.2013 13.9665 17.1363 13.9015 17.0713 13.9015C16.5513 13.9665 16.0313 13.9015 15.5113 13.8365Z" fill="white"/>
<defs>
<linearGradient id="paint0_linear_5_2110" x1="8.77987" y1="3.49756" x2="11.1775" y2="11.7306" gradientUnits="userSpaceOnUse">
<stop stop-color="#03B8FF"/>
<stop offset="1" stop-color="#FA52A0"/>
</linearGradient>
<linearGradient id="paint1_linear_5_2110" x1="10.7544" y1="2.92275" x2="13.152" y2="11.1558" gradientUnits="userSpaceOnUse">
<stop stop-color="#03B8FF"/>
<stop offset="1" stop-color="#FA52A0"/>
</linearGradient>
<linearGradient id="paint2_linear_5_2110" x1="6.81196" y1="4.07077" x2="9.20961" y2="12.3039" gradientUnits="userSpaceOnUse">
<stop stop-color="#03B8FF"/>
<stop offset="1" stop-color="#FA52A0"/>
</linearGradient>
</defs>
</svg>
