<svg width="22" height="22" viewBox="0 0 22 22" fill="none" xmlns="http://www.w3.org/2000/svg">
<circle cx="11" cy="11" r="11" fill="white"/>
<path d="M9.61643 6.95167C9.45683 6.92887 9.44923 6.92127 9.52523 6.91367C9.66964 6.89086 10.004 6.92127 10.2396 6.97447C10.7869 7.10367 11.2809 7.43807 11.8053 8.02329L11.9421 8.18289L12.1397 8.15249C12.9833 8.01569 13.8497 8.12209 14.5717 8.45649C14.7693 8.54769 15.0809 8.7301 15.1189 8.7757C15.1341 8.7909 15.1569 8.8897 15.1721 8.9885C15.2253 9.34571 15.2025 9.61171 15.0885 9.81692C15.0277 9.93092 15.0277 9.96132 15.0657 10.0601C15.0961 10.1361 15.1873 10.1893 15.2709 10.1893C15.4533 10.1893 15.6433 9.90052 15.7345 9.49771L15.7725 9.33811L15.8409 9.41411C16.2286 9.84732 16.5326 10.4477 16.5782 10.8733L16.5934 10.9873L16.525 10.8885C16.411 10.7137 16.3046 10.5997 16.1602 10.5009C15.9017 10.3261 15.6281 10.2729 14.9061 10.2349C14.2525 10.1969 13.8801 10.1437 13.5153 10.0221C12.8921 9.81692 12.5729 9.55091 11.8357 8.5705C11.5089 8.13729 11.3037 7.90168 11.0985 7.70408C10.6501 7.27087 10.2016 7.04287 9.61643 6.95167Z" fill="#FF007A"/>
<path d="M15.2787 7.91709C15.2939 7.62829 15.3319 7.43828 15.4155 7.26348C15.4459 7.19508 15.4763 7.13428 15.4839 7.13428C15.4915 7.13428 15.4763 7.18748 15.4535 7.24828C15.3927 7.41548 15.3851 7.65109 15.4231 7.91709C15.4763 8.2591 15.4991 8.3047 15.8639 8.67711C16.0311 8.85191 16.2287 9.07231 16.3047 9.16351L16.4339 9.33072L16.3047 9.20912C16.1451 9.05711 15.7803 8.76831 15.6967 8.73031C15.6435 8.69991 15.6359 8.69991 15.5979 8.73791C15.5675 8.76831 15.5599 8.81391 15.5599 9.03431C15.5523 9.37632 15.5067 9.58912 15.3927 9.80953C15.3319 9.92353 15.3243 9.90073 15.3775 9.77153C15.4155 9.67272 15.4231 9.62712 15.4231 9.30032C15.4231 8.6391 15.3471 8.4795 14.8835 8.2135C14.7694 8.1451 14.5718 8.04629 14.4578 7.99309C14.3362 7.93989 14.245 7.89429 14.2526 7.89429C14.2678 7.87909 14.7162 8.00829 14.8911 8.08429C15.1571 8.1907 15.2027 8.1983 15.2331 8.1907C15.2559 8.1679 15.2711 8.1071 15.2787 7.91709Z" fill="#FF007A"/>
<path d="M9.928 9.04949C9.6088 8.60868 9.4036 7.92467 9.4492 7.41546L9.4644 7.25586L9.5404 7.27106C9.6772 7.29386 9.9128 7.38506 10.0268 7.45346C10.3308 7.63587 10.4676 7.88667 10.5968 8.50988C10.6348 8.69229 10.688 8.90509 10.7108 8.97349C10.7488 9.08749 10.8932 9.3535 11.0148 9.5207C11.0984 9.6423 11.0452 9.7031 10.8552 9.6879C10.5664 9.6575 10.1788 9.3915 9.928 9.04949Z" fill="#FF007A"/>
<path d="M14.8911 12.3554C13.3863 11.7474 12.8542 11.223 12.8542 10.3337C12.8542 10.2045 12.8618 10.0981 12.8618 10.0981C12.8694 10.0981 12.9226 10.1437 12.9911 10.1969C13.2951 10.4402 13.6371 10.5466 14.5871 10.6834C15.1419 10.767 15.4611 10.8278 15.7499 10.9266C16.6695 11.2306 17.2395 11.8538 17.3763 12.6974C17.4143 12.9406 17.3915 13.4042 17.3307 13.6474C17.2775 13.8374 17.1255 14.187 17.0875 14.1946C17.0799 14.1946 17.0647 14.1566 17.0647 14.0958C17.0495 13.7766 16.8899 13.4726 16.6239 13.237C16.3047 12.9634 15.8943 12.7582 14.8911 12.3554Z" fill="#FF007A"/>
<path d="M13.8269 12.6063C13.8117 12.4923 13.7737 12.3479 13.7509 12.2871L13.7129 12.1731L13.7813 12.2567C13.8801 12.3707 13.9562 12.5075 14.0246 12.6975C14.0778 12.8419 14.0778 12.8875 14.0778 13.1231C14.0778 13.3511 14.0702 13.4043 14.0246 13.5335C13.9486 13.7387 13.8573 13.8831 13.7053 14.0427C13.4317 14.3239 13.0745 14.4759 12.5653 14.5443C12.4741 14.5519 12.2157 14.5747 11.9877 14.5899C11.4177 14.6203 11.0377 14.6811 10.6957 14.8027C10.6501 14.8179 10.6045 14.8331 10.5969 14.8255C10.5817 14.8103 10.8173 14.6735 11.0073 14.5823C11.2733 14.4531 11.5469 14.3847 12.1473 14.2783C12.4437 14.2327 12.7477 14.1719 12.8237 14.1415C13.5761 13.9059 13.9486 13.3207 13.8269 12.6063Z" fill="#FF007A"/>
<path d="M14.5186 13.8299C14.321 13.3967 14.2754 12.9863 14.3818 12.5987C14.397 12.5607 14.4122 12.5227 14.4274 12.5227C14.4426 12.5227 14.4882 12.5455 14.5338 12.5759C14.625 12.6367 14.815 12.7431 15.3014 13.0091C15.917 13.3435 16.2666 13.6019 16.5098 13.8983C16.7226 14.1567 16.8518 14.4531 16.9126 14.8179C16.9506 15.0232 16.9278 15.5172 16.8746 15.7224C16.7074 16.3684 16.3274 16.8852 15.7726 17.1816C15.689 17.2272 15.6206 17.2576 15.613 17.2576C15.6054 17.2576 15.6358 17.1816 15.6814 17.0904C15.8638 16.7028 15.8866 16.3304 15.7498 15.9124C15.6662 15.654 15.4914 15.3424 15.1418 14.8179C14.7238 14.2099 14.625 14.0503 14.5186 13.8299Z" fill="#FF007A"/>
<path d="M8.85638 16.1556C9.41879 15.6844 10.1104 15.35 10.7488 15.2436C11.0224 15.198 11.4784 15.2132 11.7292 15.2816C12.132 15.388 12.4968 15.616 12.6868 15.8972C12.8693 16.1708 12.9529 16.4064 13.0365 16.9308C13.0669 17.136 13.1049 17.3488 13.1125 17.3944C13.1733 17.668 13.2949 17.8808 13.4469 17.9948C13.6825 18.1696 14.0929 18.1772 14.4957 18.0252C14.5641 18.0024 14.6249 17.9796 14.6249 17.9872C14.6401 18.0024 14.4349 18.1392 14.2981 18.2076C14.1081 18.3065 13.9561 18.3369 13.7509 18.3369C13.3861 18.3369 13.0745 18.1468 12.8237 17.7668C12.7705 17.6908 12.664 17.4704 12.5728 17.2652C12.3068 16.6496 12.17 16.4672 11.8584 16.262C11.5848 16.0872 11.2352 16.0492 10.9692 16.1784C10.6196 16.3456 10.5284 16.794 10.7716 17.0676C10.8704 17.1816 11.0528 17.2728 11.2048 17.2956C11.486 17.3336 11.7292 17.1132 11.7292 16.832C11.7292 16.6496 11.6608 16.5432 11.4784 16.4596C11.2352 16.3532 10.9692 16.4748 10.9768 16.7104C10.9768 16.8092 11.0224 16.87 11.1212 16.9156C11.182 16.946 11.182 16.946 11.1364 16.9384C10.916 16.8928 10.8628 16.6192 11.0376 16.4444C11.2504 16.2316 11.6988 16.3228 11.8508 16.6192C11.9116 16.7408 11.9192 16.984 11.866 17.136C11.7368 17.4704 11.372 17.6452 10.9996 17.5464C10.7488 17.478 10.6424 17.4096 10.3384 17.098C9.8064 16.5508 9.60119 16.4444 8.84118 16.3304L8.69678 16.3076L8.85638 16.1556Z" fill="#FF007A"/>
<path fill-rule="evenodd" clip-rule="evenodd" d="M4.85884 3.9269C6.62967 6.07774 9.35812 9.4218 9.49493 9.60421C9.60893 9.75621 9.56333 9.90061 9.37332 10.007C9.26692 10.0678 9.04652 10.1286 8.94011 10.1286C8.81851 10.1286 8.67411 10.0678 8.57531 9.96901C8.50691 9.90061 8.2105 9.4674 7.54169 8.42619C7.03248 7.62817 6.59927 6.96696 6.59167 6.95936C6.56127 6.94416 6.56127 6.94416 7.48849 8.60099C8.0737 9.64221 8.2637 10.0146 8.2637 10.0602C8.2637 10.159 8.2333 10.2122 8.1117 10.349C7.9065 10.577 7.81529 10.8354 7.74689 11.375C7.67089 11.9754 7.46569 12.4011 6.88048 13.1231C6.53847 13.5487 6.48527 13.6247 6.40167 13.7995C6.29527 14.0123 6.26487 14.1339 6.24967 14.4075C6.23447 14.6963 6.26487 14.8787 6.34847 15.1523C6.42447 15.3955 6.50807 15.5551 6.71327 15.8667C6.88808 16.1403 6.99448 16.3455 6.99448 16.4215C6.99448 16.4823 7.00968 16.4823 7.28328 16.4215C7.9369 16.2695 8.47651 16.0111 8.77291 15.6919C8.95532 15.4943 9.00092 15.3879 9.00092 15.1143C9.00092 14.9395 8.99332 14.9015 8.94771 14.7951C8.87171 14.6279 8.72731 14.4911 8.41571 14.2783C8.0053 13.9971 7.83049 13.7691 7.78489 13.4651C7.74689 13.2067 7.79249 13.0319 8.0205 12.5531C8.2561 12.0591 8.3169 11.8538 8.3549 11.3522C8.3777 11.033 8.41571 10.9038 8.50691 10.805C8.60571 10.6986 8.68931 10.6606 8.92491 10.6302C9.31252 10.577 9.56333 10.4782 9.76093 10.2882C9.93573 10.1286 10.0117 9.96901 10.0193 9.73341L10.0269 9.55861L9.92813 9.4522C9.57093 9.0418 4.62324 3.6001 4.60044 3.6001C4.59284 3.6001 4.71444 3.7445 4.85884 3.9269ZM7.19208 14.7343C7.27568 14.5899 7.23008 14.4075 7.09328 14.3163C6.96408 14.2327 6.76648 14.2707 6.76648 14.3847C6.76648 14.4151 6.78168 14.4455 6.82728 14.4607C6.89568 14.4987 6.90328 14.5367 6.85008 14.6203C6.79688 14.7039 6.79688 14.7799 6.86528 14.8331C6.97168 14.9167 7.11608 14.8711 7.19208 14.7343Z" fill="#FF007A"/>
<path fill-rule="evenodd" clip-rule="evenodd" d="M10.2701 10.7366C10.0877 10.7898 9.91293 10.9874 9.85973 11.185C9.82933 11.3066 9.84453 11.527 9.89773 11.5954C9.98133 11.7018 10.0573 11.7322 10.2701 11.7322C10.6881 11.7322 11.0454 11.5498 11.0834 11.3294C11.1214 11.147 10.9618 10.8962 10.7413 10.7822C10.6273 10.7214 10.3917 10.6986 10.2701 10.7366ZM10.7565 11.1166C10.8173 11.0254 10.7945 10.9266 10.6805 10.8582C10.4753 10.729 10.1637 10.8354 10.1637 11.033C10.1637 11.1318 10.3233 11.2382 10.4753 11.2382C10.5741 11.2382 10.7109 11.1774 10.7565 11.1166Z" fill="#FF007A"/>
</svg>
