<svg width="22" height="22" viewBox="0 0 22 22" fill="none" xmlns="http://www.w3.org/2000/svg">
<path d="M11 22C17.0751 22 22 17.0751 22 11C22 4.92487 17.0751 0 11 0C4.92487 0 0 4.92487 0 11C0 17.0751 4.92487 22 11 22Z" fill="#26A17B"/>
<path fill-rule="evenodd" clip-rule="evenodd" d="M12.3214 11.951V11.9496C12.2458 11.9551 11.856 11.9785 10.9863 11.9785C10.2919 11.9785 9.80311 11.9579 9.63124 11.9496V11.9517C6.95824 11.8341 4.96311 11.3687 4.96311 10.8118C4.96311 10.2556 6.95824 9.79017 9.63124 9.67055V11.4883C9.80586 11.5007 10.3064 11.5302 10.998 11.5302C11.8278 11.5302 12.2437 11.4959 12.3214 11.489V9.67192C14.9889 9.79086 16.9792 10.2563 16.9792 10.8118C16.9792 11.3687 14.9889 11.8327 12.3214 11.951ZM12.3214 9.48286V7.85623H16.0435V5.37573H5.90911V7.85623H9.63124V9.48217C6.60624 9.62105 4.3313 10.2205 4.3313 10.9383C4.3313 11.656 6.60624 12.2549 9.63124 12.3944V17.607H12.3214V12.393C15.3416 12.2542 17.611 11.6554 17.611 10.9383C17.611 10.2212 15.3416 9.62242 12.3214 9.48286Z" fill="white"/>
</svg>
